<?xml version="1.0" encoding="utf-8"?>
<svg xmlns="http://www.w3.org/2000/svg" viewBox="238 238 24 24">
    <defs>
        <linearGradient id="a" x1="7.482" x2="18.941" y1="4.223" y2="24.076" gradientTransform="translate(238 238)"
                        gradientUnits="userSpaceOnUse">
            <stop stop-color="#fff" stop-opacity=".15"/>
            <stop offset="0.79" stop-color="#fff" stop-opacity=".03"/>
        </linearGradient>
    </defs>
    <path fill="#000000" stroke="#fff" stroke-width="0.3"
          d="M250 262c5.258 0 8.181 0 10.09-1.91C262 258.181 262 255.259 262 250c0-5.259 0-8.181-1.91-10.09C258.181 238 255.258 238 250 238c-5.259 0-8.185 0-10.09 1.91-1.906 1.909-1.91 4.831-1.91 10.09 0 5.259 0 8.181 1.91 10.09C241.819 262 244.741 262 250 262Z"
          pointer-events="none"/>
    <path fill="url(#a)"
          d="M257.802 245.559c-.579-1.044-1.576-1.899-2.514-2.639-.938-.739-1.859-1.185-3.01-1.504-1.151-.32-2.328-.314-3.513-.164s-2.205.421-3.24 1.017c-1.035.597-1.839 1.327-2.562 2.278-.724.95-1.205 1.893-1.505 3.049-.301 1.156-.41 2.437-.239 3.619.17 1.182.376 2.307.99 3.332l.051.087 4.227 7.328c.702.019 1.461.027 2.278.025h1.201a56.21 56.21 0 0 0 5.746-.17c1.913-.21 3.287-.68 4.339-1.739 1.548-1.547 1.841-3.76 1.895-7.339l-4.144-7.18Z"
          pointer-events="none"/>
    <path d="M258.313 246.553a9.003 9.003 0 0 1 0 6.894 8.987 8.987 0 0 1-1.956 2.92 9 9 0 0 1-9.805 1.947A8.995 8.995 0 0 1 241 250a8.995 8.995 0 0 1 5.552-8.314 8.998 8.998 0 0 1 11.761 4.867Zm-9.991-2.476a4.826 4.826 0 0 0-1.928 1.28 4.867 4.867 0 0 0-1.186 2.333 5.442 5.442 0 0 0-.089 1.124 4.835 4.835 0 0 0 1.223 3.036c.028.037.069.072.099.111.485.51 1.079.92 1.735 1.175.129.052.263.096.393.14.048.632.136 1.261.275 1.879.041.168.081.339.144.501a.852.852 0 0 0 .307.393.777.777 0 0 0 .566.104.823.823 0 0 0 .456-.263.79.79 0 0 0 .179-.501c-.014-.219-.099-.424-.141-.637a10.952 10.952 0 0 1-.204-1.271l.011-.009a4.778 4.778 0 0 0 2.389-.746 5.006 5.006 0 0 0 1.493-1.477 4.99 4.99 0 0 0 .525-1.067c.062-.189.128-.376.181-.568.072-.248.112-.504.126-.765 0-.056.001-.113.009-.169v-.326c-.009-.052-.009-.105-.012-.16a3.23 3.23 0 0 0-.101-.646 4.903 4.903 0 0 0-.541-1.328 2.939 2.939 0 0 0-.334-.451 2.273 2.273 0 0 0-.741-.549 2.584 2.584 0 0 0-.956-.214 2.36 2.36 0 0 0-.984.194 2.775 2.775 0 0 0-.928.665 3.844 3.844 0 0 0-.544.729c-.297.515-.507 1.079-.674 1.649-.299 1.037-.453 2.11-.511 3.185-.009.055-.003.111-.016.165a3.195 3.195 0 0 1-.705-.455 3.32 3.32 0 0 1-1.021-1.554 2.984 2.984 0 0 1-.126-.791 4.648 4.648 0 0 1 .002-.457 3.274 3.274 0 0 1 1.573-2.511c-.005.058-.003.116-.003.173a.808.808 0 0 0 .288.545.77.77 0 0 0 .712.145.867.867 0 0 0 .313-.19 1.7 1.7 0 0 0 .153-.153c.181-.199.355-.407.502-.631.1-.157.19-.32.251-.496.081-.227.112-.478.036-.708a.98.98 0 0 0-.407-.521 1.23 1.23 0 0 0-.669-.157c-.074.005-.149.006-.222.017a4.638 4.638 0 0 0-.898.228Zm3.756 2.491c.119 0 .243-.012.351.041l.02.008a.151.151 0 0 0 .036.018c.013.009.026.014.038.02a.858.858 0 0 1 .271.219c.066.076.118.164.17.249.04.076.075.15.113.227.022.052.042.106.067.158.065.189.112.385.135.584.05.363.033.734-.046 1.091-.019.107-.053.212-.082.318-.014.039-.023.074-.035.113-.019.032-.028.069-.039.104a.135.135 0 0 0-.019.045 1.139 1.139 0 0 0-.045.112c-.022.042-.042.08-.057.123a.154.154 0 0 0-.02.038.255.255 0 0 0-.019.037c0 .003-.007.012-.009.018a3.503 3.503 0 0 1-.465.685c-.031.044-.073.077-.105.119-.055.064-.12.119-.182.176-.18.163-.376.302-.586.424-.106.055-.211.111-.319.156-.065.029-.132.052-.196.078-.037.012-.076.023-.113.038-.076.019-.152.045-.23.061a4.806 4.806 0 0 1-.607.091c-.004-.103.011-.206.009-.311.008-.056.008-.111.012-.167.008-.054.002-.114.012-.168.035-.474.077-.946.158-1.412.075-.443.178-.883.309-1.314l.101-.309c.016-.034.025-.069.036-.103l.13-.317c.022-.042.043-.081.057-.122.005-.007.008-.016.01-.021a.251.251 0 0 1 .011-.017.138.138 0 0 1 .008-.02c.003-.005.008-.013.01-.019l.009-.018c.002-.004.008-.014.008-.019.1-.186.209-.371.342-.536.102-.123.217-.239.349-.326.066-.044.139-.077.209-.111a.438.438 0 0 1 .193-.041Z"
          fill="#fff"/>
    <g id="Layer_2" transform="matrix(0.026442, 0, 0, 0.035811, 239.147008, 242.68485)" style="">
        <g id="Layer_1-2" transform="matrix(1, 0, 0, 1, 109.373759, 130.506289)">
            <g>
                <g>
                    <path fill="#000000" stroke="#000000" stroke-width="8"
                          d="M 142.789 193.326 C 132.995 191.467 114.75 185.022 107.843 173.526 C 105.288 168.752 107.651 165.396 109.204 161.652 C 109.858 159.555 107.756 158.851 106.569 158.311 C 90.837 152.619 74.851 143.397 63.793 125.632 C 58.386 116.447 61.464 111.359 69.139 110.078 C 70.944 109.763 72.705 109.462 73.735 110.292 C 75.2 111.347 74.781 113.093 73.43 113.772 C 71.319 115.028 67.612 113.583 65.746 116.385 C 62.616 122.303 71.999 129.878 74.711 133.384 C 88.735 147.857 105.75 155.157 122.73 157.306 C 134.643 158.462 168.751 158.562 177.56 150.345 C 179.287 147.392 175.205 145.91 173.784 143.573 C 170.47 139.792 171.525 131.863 165.969 133.975 C 158.617 136.261 150.995 135.734 143.565 134.816 C 108.332 130.469 66.496 112.917 45.286 69.257 C 42.391 63.239 32.789 41.491 41.057 38.638 C 43.002 37.935 47.031 39.669 47.912 39.066 C 48.295 38.864 48.173 38.299 48.016 37.872 C 40.96 25.635 32.405 3.208 31.647 -11.844 C 31.725 -23.126 40.289 -13.728 43.786 -10.826 C 48.348 -7.032 42.452 -18.175 41.886 -19.772 C 37.717 -29.308 33.452 -39.899 31.961 -51.319 C 31.534 -55.076 31.534 -59.285 32.649 -62.577 C 34.271 -66.346 36.138 -63.469 37.367 -59.939 C 39.653 -53.82 40.978 -46.344 44.005 -40.829 C 80.258 19.328 138.777 36.667 190.772 53.641 C 211.398 60.89 231.361 62.761 249.187 78.743 C 280.356 105.844 293.088 170.925 280.303 220.188 C 279.353 223.907 278.306 227.777 277.286 231.458 C 276.361 234.6 275.647 238.406 274.05 240.253 C 272.49 241.76 271.094 240.643 271.626 237.941 C 272.324 233.871 274.347 225.352 274.077 220.113 C 274.016 217.801 273.248 215.942 271.888 218.404 C 270.048 221.997 268.391 226.759 266.123 230.077 C 260.14 239.336 249.919 251.31 241.198 249.576 C 238.216 248.671 236.506 243.959 233.21 244.035 C 230.122 243.645 227.392 245.932 224.506 246.887 C 221.663 247.553 217.293 245.982 214.346 244.01 C 212.113 242.427 210.517 239.009 207.971 238.394 C 204.185 237.866 200.392 241.673 196.563 241.748 C 191.244 242.728 166.309 244.525 168.011 230.579 C 168.411 227.174 172.083 221.495 169.188 221.081 C 164.635 220.603 158.661 221.734 154.039 219.02 C 147.105 216.143 140.66 206.757 149.914 200.551 C 152.068 198.666 155.086 197.888 156.725 195.336 C 157.37 193.339 153.943 193.365 153.062 193.365 C 149.6 193.477 145.937 193.741 142.937 193.339 L 142.789 193.339 L 142.789 193.326 Z M 36.007 -51.446 C 35.92 -51.583 35.833 -51.684 35.754 -51.772 C 35.127 -52.488 35.135 -51.407 35.571 -49.158 C 35.624 -48.882 35.684 -48.593 35.745 -48.292 C 50.179 12.204 94.281 48.979 134.285 67.85 C 153.611 76.419 187.964 90.54 206.636 83.316 C 208.285 82.801 209.418 84.296 210.159 86.407 C 211.354 89.736 212.758 93.116 214.843 95.264 C 224.226 105.617 241.495 109.989 253.224 107.715 C 253.983 108.03 254.044 109.048 253.277 110.14 C 251.96 112.238 249.047 112.163 247.895 113.571 C 246.805 114.864 247.233 117.151 247.634 118.947 C 250.73 132.152 258.387 141.525 265.574 150.659 C 267.37 152.808 268.669 155.584 268.757 159.064 C 268.835 163.475 268.757 167.91 269.184 172.282 C 269.804 179.519 271.198 187.107 273.318 193.917 C 275.324 199.948 277.146 207.322 277.286 213.793 C 278.123 220.063 281.002 200.627 281.106 199.609 C 281.908 194.042 282.092 191.216 282.187 186.604 C 283.216 140.973 266.891 91.307 236.646 74.797 C 226.686 69.018 216.823 66.933 206.139 64.156 C 152.461 47.571 82.229 25.911 43.83 -32.435 C 40.394 -37.612 39.609 -45.716 36.068 -51.344 L 35.998 -51.446 L 36.007 -51.446 Z M 44.729 -5.072 C 43.359 -6.202 41.946 -7.245 40.524 -8.237 C 38.597 -9.532 36.347 -11.416 35.397 -10.901 C 33.879 -9.934 35.38 -4.858 35.763 -2.244 C 50.815 62.221 102.68 96.798 147.149 103.607 C 151.344 103.745 154.03 98.306 149.626 94.838 C 145.065 91.018 140.469 85.98 138.907 78.554 C 138.297 75.364 137.024 73.177 134.687 72.574 C 111.681 61.895 92.354 49.406 72.854 28.336 C 63.122 18.009 55.307 3.836 44.868 -4.946 L 44.729 -5.059 L 44.729 -5.072 Z M 58.15 52.912 C 56.17 50.437 54.217 47.383 52.089 45.096 C 50.345 43.362 48.923 44.355 46.935 44.28 C 45.391 44.305 43.856 43.225 42.347 43.25 C 39.478 43.614 40.743 49.519 41.292 52.158 C 57.034 111.623 134.085 140.055 173.06 127.542 C 173.487 127.316 173.112 126.938 171.952 126.222 C 167.626 123.584 162.42 121.611 159.202 116.623 C 154.153 109.814 148.431 107.816 141.812 106.685 C 109.622 100.215 81.993 83.618 58.281 53.074 L 58.159 52.912 L 58.15 52.912 Z M 207.019 89.234 C 206.375 87.852 205.145 88.078 203.2 87.965 C 198.97 87.852 191.88 88.179 187.118 88.266 C 181.336 88.517 176.592 87.375 171.037 86.03 C 161.958 83.932 153.655 80.339 144.986 76.305 C 143.905 75.803 141.864 74.961 141.498 76.658 C 141.219 81.168 145.126 85.842 147.542 88.304 C 160.929 100.328 180.847 100.73 196.25 97.426 C 198.917 96.609 201.63 95.415 204.308 94.561 C 205.991 94.197 208.031 91.646 207.072 89.372 L 207.019 89.259 L 207.019 89.234 Z M 227.837 108.733 C 227.322 108.255 226.398 107.954 225.683 107.615 C 221.61 105.894 216.36 100.303 213.064 97.853 C 211.73 96.835 210.421 96.458 208.895 97.049 C 196.999 103.306 181.833 103.343 169.101 102.69 C 165.115 102.64 161.356 100.165 157.397 99.725 C 153.515 99.473 152.382 103.055 154.858 107.175 C 157.248 111.472 162.106 115.593 165.752 118.093 C 178.929 126.499 203.636 127.353 216.717 118.835 C 218.314 117.603 229.075 110.605 227.881 108.796 L 227.828 108.733 L 227.837 108.733 Z M 241.852 112.364 C 240.038 111.233 237.657 111.56 235.791 110.731 C 234.814 110.429 233.828 110.09 232.851 110.555 C 228.047 113.859 223.459 119.45 218.383 122.126 C 211.014 126.323 202.459 129.413 194.593 129.728 C 188.662 129.903 181.406 127.177 175.886 131.336 C 173.304 133.723 173.4 139.125 176.278 141.098 C 181.249 144.591 188.382 148.046 194.217 148.184 C 205.746 148.347 222.63 143.058 233.131 136.311 C 237.02 133.51 240.902 129.841 244.538 126.423 C 246.274 123.534 244.425 119.726 243.701 116.246 C 243.291 114.827 242.855 113.269 241.948 112.427 L 241.843 112.339 L 241.852 112.364 Z M 247.835 130.18 C 247.085 129.853 246.448 130.205 245.724 130.783 C 233.463 142.354 209.75 148.222 200.357 159.241 C 195.343 165.259 198.011 169.14 203.592 170.008 C 216.133 172.483 230.087 165.422 240.753 156.062 C 244.451 152.845 248.236 148.473 251.271 144.163 C 251.968 143.096 252.414 142.141 252.51 141.06 C 252.675 137.756 249.998 131.6 247.948 130.23 L 247.844 130.18 L 247.835 130.18 Z M 263.602 152.695 C 261.745 150.069 258.701 145.735 256.32 144.905 C 254.323 144.678 252.657 148.008 250.817 149.805 C 247.145 154.077 243.709 158.398 239.532 161.414 C 232.73 166.578 225.866 169.669 221.209 178.79 C 220.058 181.064 218.697 184.569 219.579 187.233 C 220.197 189.092 221.785 189.696 223.154 189.783 C 235.224 189.872 250.765 176.302 259.329 164.58 C 260.977 161.791 265.975 156.351 263.681 152.845 L 263.602 152.708 L 263.602 152.695 Z M 201.316 151.915 C 200.723 151.288 199.599 151.626 198.796 151.539 C 194.845 151.576 190.337 150.081 187.101 150.471 C 182.993 151.2 179.277 155.472 175.249 156.816 C 158.609 162.846 137.216 163.6 119.974 161.251 C 116.974 160.17 115.361 159.932 112.962 162.809 C 111.488 164.417 109.012 166.339 109.248 169.14 C 109.369 170.41 110.181 171.704 111.254 172.822 C 113.137 174.82 115.893 176.867 118.064 178.325 C 143.042 194.634 171.891 190.123 197.069 176.68 C 205.878 172.269 190.11 170.359 197.688 158.134 C 199.031 155.698 201.439 153.385 201.333 151.966 L 201.307 151.903 L 201.316 151.915 Z M 268.12 188.778 C 268.835 186.818 268.478 185.072 267.85 181.981 C 266.917 177.421 265.373 169.518 264.641 166.15 C 264.422 165.209 264.056 164.266 263.358 165.12 C 258.623 172.834 251.184 177.22 246.614 184.62 C 242.776 190.788 236.331 208.026 247.355 206.305 C 249.221 205.991 251.009 205.2 252.893 204.144 C 255.396 202.712 257.916 200.739 260.28 198.528 C 263.236 195.488 266.219 193.037 268.051 188.929 L 268.111 188.766 L 268.12 188.778 Z M 219.465 174.757 C 218.95 173.815 217.764 174.091 216.944 174.091 C 213.709 174.367 210.125 174.217 207.465 174.832 C 201.194 176.553 195.071 182.748 188.854 185.462 C 182.077 188.477 173.138 189.042 166.362 191.455 C 163.789 192.271 161.949 193.54 159.751 195.563 C 157.571 197.473 154.536 200.174 152.19 202.184 C 149.015 204.722 145.815 208.014 150.534 211.834 C 169.022 224.096 201.604 213.203 214.983 191.492 C 217.067 187.522 217.537 182.76 218.916 178.35 C 219.239 177.282 219.779 175.498 219.491 174.845 L 219.456 174.757 L 219.465 174.757 Z M 241.041 188.778 C 240.928 188.326 240.5 188.238 239.794 188.452 C 236.794 189.557 233.48 192.41 230.253 192.472 C 214.127 192.032 220.956 189.118 209.314 203.466 C 202.763 210.364 193.973 216.13 185.941 218.593 C 182.313 219.849 177.847 219.171 174.429 221.055 C 173.775 221.571 173.251 222.362 172.79 223.241 C 171.647 225.805 170.085 228.569 170.33 231.282 C 171.926 236.245 181.982 236.697 185.792 237.15 C 208.791 238.607 231.421 218.467 241.059 188.879 L 241.041 188.791 L 241.041 188.778 Z M 272.56 206.142 C 273.484 203.102 272.22 194.922 270.091 193.603 C 269.088 193.239 268.077 194.709 267.327 195.651 C 264.082 199.834 260.463 203.302 256.739 206.18 C 254.244 207.8 251.375 208.792 249.71 212.248 C 247.826 215.741 246.779 220.226 251.341 220.327 C 255.719 220.591 262.059 218.116 266.036 215.402 C 268.53 213.278 271.085 209.836 272.498 206.343 L 272.56 206.155 L 272.56 206.142 Z M 245.802 211.595 C 244.546 209.949 242.489 209.798 241.041 208.429 C 239.776 207.536 238.093 205.212 237.029 206.695 C 234.011 210.489 231.073 216.105 228.038 219.975 C 224.043 224.963 219.334 229.072 214.677 232.828 C 210.613 235.73 214.346 238.996 216.883 240.265 C 221.68 242.54 228.361 240.743 232.8 238.595 C 237.334 236.245 243.422 230.843 245.925 225.779 C 246.954 223.517 246.658 220.88 246.457 218.291 C 246.204 216.281 246.622 213.24 245.864 211.708 L 245.794 211.595 L 245.802 211.595 Z M 264.71 225.013 C 266.882 221.206 268.155 217.864 264.335 220.527 C 260.306 223.241 254.559 222.701 250.224 224.761 C 247.948 226.533 246.849 230.252 244.599 233.129 C 243.5 234.687 242.183 235.868 240.963 237.175 C 239.419 238.657 238.032 241.911 239.863 243.872 C 241.678 245.53 244.992 244.877 247.137 243.809 C 253.32 240.404 260.568 231.948 264.615 225.189 L 264.719 225.013 L 264.71 225.013 Z"
                          style="fill-rule: nonzero; paint-order: stroke;"/>
                </g>
            </g>
        </g>
    </g>
</svg>